<?xml version="1.0" standalone="no"?>
<!DOCTYPE svg PUBLIC "-//W3C//DTD SVG 20010904//EN"
 "http://www.w3.org/TR/2001/REC-SVG-20010904/DTD/svg10.dtd">
<svg version="1.0" xmlns="http://www.w3.org/2000/svg"
 width="16.000000pt" height="16.000000pt" viewBox="0 0 16.000000 16.000000"
 preserveAspectRatio="xMidYMid meet">
<metadata>
Created by potrace 1.11, written by Peter Selinger 2001-2013
</metadata>
<g transform="translate(0.000000,16.000000) scale(0.002914,-0.002914)"
fill="#000000" stroke="none">
<path d="M264 5381 c-2 -2 -4 -1192 -4 -2643 l0 -2638 533 2 532 3 -1 117 c-1
133 -10 163 -60 197 -35 24 -38 25 -297 26 -144 2 -265 3 -269 4 -5 0 -8 1036
-8 2300 l0 2300 272 1 c253 0 274 2 303 20 18 11 38 34 45 50 14 34 21 233 9
252 -6 10 -121 13 -529 13 -287 0 -524 -2 -526 -4z"/>
<path d="M4165 5380 c-2 -3 -2 -59 -1 -124 3 -126 11 -146 67 -188 23 -17 49
-19 295 -21 l269 -2 2 -2297 c1 -1264 -2 -2298 -5 -2299 -4 0 -125 -1 -269 -2
-247 -2 -263 -3 -289 -23 -62 -46 -68 -63 -68 -197 l-1 -122 533 -3 532 -2 0
2643 0 2644 -530 0 c-292 0 -533 -3 -535 -7z"/>
<path d="M1555 4493 c-219 -67 -331 -318 -233 -522 34 -70 109 -144 181 -177
55 -26 73 -29 162 -29 89 0 106 3 157 27 113 55 198 168 217 287 15 96 -20
220 -83 293 -99 113 -264 163 -401 121z"/>
<path d="M3134 4065 l1 -415 -392 0 -393 0 0 -185 0 -185 138 -1 c75 0 251 0
390 1 l252 0 1 -42 c0 -24 0 -213 0 -421 l1 -377 205 2 204 3 2 415 2 415 295
2 c162 2 339 3 393 3 l97 0 0 185 0 185 -395 0 -395 0 0 398 c1 218 1 405 0
415 0 16 -17 17 -204 17 l-204 0 2 -415z"/>
<path d="M1360 2175 l0 -1235 298 2 297 3 1 1233 1 1232 -299 0 -298 0 0
-1235z"/>
</g>
</svg>
